<mxfile host="65bd71144e">
    <diagram id="7REF6k8YkoENWeJgNul2" name="01-全局代码执行过程(函数)">
        <mxGraphModel dx="1148" dy="782" grid="1" gridSize="10" guides="1" tooltips="1" connect="1" arrows="1" fold="1" page="1" pageScale="1" pageWidth="827" pageHeight="1169" math="0" shadow="0">
            <root>
                <mxCell id="0"/>
                <mxCell id="1" parent="0"/>
                <mxCell id="2" value="" style="rounded=1;whiteSpace=wrap;html=1;" parent="1" vertex="1">
                    <mxGeometry x="10" y="130" width="350" height="660" as="geometry"/>
                </mxCell>
                <mxCell id="3" value="" style="rounded=0;whiteSpace=wrap;html=1;" parent="1" vertex="1">
                    <mxGeometry x="30" y="530" width="310" height="240" as="geometry"/>
                </mxCell>
                <mxCell id="4" value="VO(variable Object):GO" style="rounded=0;whiteSpace=wrap;html=1;" parent="1" vertex="1">
                    <mxGeometry x="50" y="530" width="270" height="130" as="geometry"/>
                </mxCell>
                <mxCell id="5" value="代码执行&lt;br&gt;1.先给name赋值&lt;br&gt;2.执行foo 先创建函数执行上下文 同时创建AO 并压入调用栈" style="rounded=0;whiteSpace=wrap;html=1;" parent="1" vertex="1">
                    <mxGeometry x="50" y="660" width="270" height="110" as="geometry"/>
                </mxCell>
                <mxCell id="6" value="&lt;font style=&quot;font-size: 16px&quot;&gt;ECSrock(调用栈)&lt;/font&gt;" style="text;html=1;align=center;verticalAlign=middle;resizable=0;points=[];autosize=1;strokeColor=none;fillColor=none;" parent="1" vertex="1">
                    <mxGeometry x="20" y="90" width="140" height="20" as="geometry"/>
                </mxCell>
                <mxCell id="7" value="&lt;font style=&quot;font-size: 16px&quot;&gt;GEC global execution context(全局作用域)&lt;/font&gt;" style="text;html=1;align=center;verticalAlign=middle;resizable=0;points=[];autosize=1;strokeColor=none;fillColor=none;" parent="1" vertex="1">
                    <mxGeometry x="20" y="510" width="320" height="20" as="geometry"/>
                </mxCell>
                <mxCell id="8" value="{&lt;br&gt;string:&quot;类&quot;,&lt;br&gt;window:GO,&lt;br&gt;name:&quot;why&quot;&lt;br&gt;foo:0xa00&lt;br&gt;}" style="rounded=0;whiteSpace=wrap;html=1;fontSize=16;" parent="1" vertex="1">
                    <mxGeometry x="590" y="150" width="150" height="170" as="geometry"/>
                </mxCell>
                <mxCell id="9" value="GO" style="text;html=1;align=center;verticalAlign=middle;resizable=0;points=[];autosize=1;strokeColor=none;fillColor=none;fontSize=16;" parent="1" vertex="1">
                    <mxGeometry x="600" y="130" width="40" height="20" as="geometry"/>
                </mxCell>
                <mxCell id="10" value="parent scope：GO&lt;br&gt;代码块" style="rounded=1;whiteSpace=wrap;html=1;" vertex="1" parent="1">
                    <mxGeometry x="610" y="460" width="120" height="60" as="geometry"/>
                </mxCell>
                <mxCell id="11" value="&lt;font style=&quot;font-size: 17px&quot;&gt;foo函数对象&lt;/font&gt;" style="text;html=1;align=center;verticalAlign=middle;resizable=0;points=[];autosize=1;strokeColor=none;fillColor=none;" vertex="1" parent="1">
                    <mxGeometry x="600" y="420" width="110" height="20" as="geometry"/>
                </mxCell>
                <mxCell id="12" value="" style="endArrow=classic;html=1;fontSize=17;exitX=0.5;exitY=1;exitDx=0;exitDy=0;" edge="1" parent="1" source="8" target="10">
                    <mxGeometry width="50" height="50" relative="1" as="geometry">
                        <mxPoint x="720" y="410" as="sourcePoint"/>
                        <mxPoint x="770" y="360" as="targetPoint"/>
                    </mxGeometry>
                </mxCell>
                <mxCell id="13" value="num:&lt;br&gt;n:&lt;br&gt;m:" style="rounded=1;whiteSpace=wrap;html=1;fontSize=17;" vertex="1" parent="1">
                    <mxGeometry x="414" y="310" width="120" height="60" as="geometry"/>
                </mxCell>
                <mxCell id="14" value="" style="rounded=1;whiteSpace=wrap;html=1;fontSize=17;" vertex="1" parent="1">
                    <mxGeometry x="30" y="240" width="300" height="230" as="geometry"/>
                </mxCell>
                <mxCell id="15" value="VO:AO(foo)+父级作用域VO(GO)" style="rounded=0;whiteSpace=wrap;html=1;fontSize=17;" vertex="1" parent="1">
                    <mxGeometry x="40" y="250" width="280" height="80" as="geometry"/>
                </mxCell>
                <mxCell id="16" value="代码执行&lt;br&gt;1.打印n n还没赋值 为undefined&lt;br&gt;2.给num、n、m赋值&lt;br&gt;3.打印&quot;foo&quot;&amp;nbsp;" style="rounded=0;whiteSpace=wrap;html=1;fontSize=17;" vertex="1" parent="1">
                    <mxGeometry x="40" y="330" width="280" height="120" as="geometry"/>
                </mxCell>
                <mxCell id="17" value="&lt;font style=&quot;font-size: 16px&quot;&gt;FCC(函数执行上下文)&lt;/font&gt;" style="text;html=1;align=center;verticalAlign=middle;resizable=0;points=[];autosize=1;strokeColor=none;fillColor=none;" vertex="1" parent="1">
                    <mxGeometry x="25" y="210" width="170" height="20" as="geometry"/>
                </mxCell>
                <mxCell id="18" value="调用函数时AO" style="text;html=1;align=center;verticalAlign=middle;resizable=0;points=[];autosize=1;strokeColor=none;fillColor=none;fontSize=17;" vertex="1" parent="1">
                    <mxGeometry x="404" y="275" width="130" height="30" as="geometry"/>
                </mxCell>
                <mxCell id="19" value="num：123&lt;br&gt;n:10&lt;br&gt;m:20" style="rounded=1;whiteSpace=wrap;html=1;fontSize=17;" vertex="1" parent="1">
                    <mxGeometry x="420" y="470" width="120" height="60" as="geometry"/>
                </mxCell>
                <mxCell id="20" value="执行函数时AO" style="text;html=1;align=center;verticalAlign=middle;resizable=0;points=[];autosize=1;strokeColor=none;fillColor=none;fontSize=17;" vertex="1" parent="1">
                    <mxGeometry x="414" y="430" width="130" height="30" as="geometry"/>
                </mxCell>
                <mxCell id="21" value="当函数执行完后即&quot;foo&quot;打印完后函数执行上下文弹出调用栈&lt;br&gt;并且对应的AO进行销毁" style="text;html=1;align=center;verticalAlign=middle;resizable=0;points=[];autosize=1;strokeColor=none;fillColor=none;fontSize=17;" vertex="1" parent="1">
                    <mxGeometry x="350" y="30" width="460" height="50" as="geometry"/>
                </mxCell>
            </root>
        </mxGraphModel>
    </diagram>
</mxfile>